<svg xmlns="http://www.w3.org/2000/svg" width="46" height="50" viewBox="0 0 46 50">
  <g id="illustration" transform="translate(-24.214 -25.655)">
    <g id="Group_815" data-name="Group 815">
      <path id="Path_2201" data-name="Path 2201" d="M30.3,30.174,24.214,31.8c.184,13.757,4.47,23.8,9.319,30.784l5.9-12.693Z" fill="#fff"/>
      <path id="Path_2202" data-name="Path 2202" d="M64,30.141,54.945,49.9l5.878,12.791C65.7,55.695,70.029,45.625,70.214,31.8Z" fill="#fff"/>
      <path id="Path_2203" data-name="Path 2203" d="M49.925,60.844l-2.711,5.88L44.5,60.844l2.711-5.879L49.533,49.9l-1.844-4.014.476-1.031L50.4,40.008,52.236,44l6.94-15.151-11.961-3.2-12.089,3.23L42.15,44.038,44.5,38.977l2.711-5.88,2.711,5.88-2.711,5.88L44.867,49.9l1.871,4.035-.476,1.031-2.235,4.848-1.883-4.064L36.935,66.941a43.2,43.2,0,0,0,9.957,8.526c.124.074.232.137.323.188.09-.051.2-.114.322-.188A43.122,43.122,0,0,0,57.4,67.043L52.24,55.8Z" fill="#fff"/>
    </g>
  </g>
</svg>
